<?xml version="1.0" standalone="no"?>
<!DOCTYPE svg PUBLIC "-//W3C//DTD SVG 20010904//EN"
 "http://www.w3.org/TR/2001/REC-SVG-20010904/DTD/svg10.dtd">
<svg version="1.0" xmlns="http://www.w3.org/2000/svg"
 width="2406.000000pt" height="1417.000000pt" viewBox="0 0 2406.000000 1417.000000"
 preserveAspectRatio="xMidYMid meet">

<g transform="translate(0.000000,1417.000000) scale(0.100000,-0.100000)"
fill="#000000" stroke="none">
<path d="M0 7085 l0 -7085 12030 0 12030 0 0 7085 0 7085 -12030 0 -12030 0 0
-7085z m11397 3208 c5 -38 205 -1277 444 -2755 l434 -2688 311 0 311 0 22 143
c13 78 208 1317 434 2752 l412 2610 278 3 c218 2 277 0 277 -10 0 -7 -144
-818 -319 -1803 -175 -984 -437 -2455 -582 -3267 l-263 -1478 -587 0 c-551 0
-588 1 -593 18 -3 9 -39 208 -80 442 -131 739 -1076 6044 -1082 6073 l-6 27
290 0 289 0 10 -67z m1803 62 c0 -3 -11 -81 -25 -173 -14 -92 -151 -1038 -305
-2102 -154 -1064 -281 -1939 -283 -1944 -1 -4 -46 293 -100 660 -53 368 -189
1308 -302 2089 -113 781 -208 1432 -211 1448 l-6 27 616 0 c339 0 616 -2 616
-5z"/>
</g>
</svg>
