<svg width="1654" height="700" viewBox="0 0 1654 700" fill="none" xmlns="http://www.w3.org/2000/svg">
<path d="M1136.26 0.1875C1127.89 0.1875 1120.22 4.65667 1120.22 10.8746V206.158L1053.75 180.342C1049.59 178.708 1044.9 177.913 1040.2 177.913C1035.51 177.913 1030.82 178.708 1026.66 180.342L866.94 242.383C858.618 245.581 853.5 251.498 853.5 257.858V382.079C853.5 388.475 858.618 394.357 866.94 397.555L1026.66 459.595C1030.82 461.23 1035.51 462.024 1040.2 462.024C1044.9 462.024 1049.59 461.23 1053.75 459.595L1213.47 397.555C1221.79 394.357 1226.91 388.439 1226.91 382.079V319.969V257.858V43.9076C1226.91 37.583 1221.84 31.7687 1213.67 28.5709L1144.18 1.64484C1141.57 0.649961 1138.93 0.1875 1136.26 0.1875ZM613.453 177.913C608.772 177.913 604.096 178.725 599.909 180.342L440.19 242.383C431.868 245.581 426.75 251.498 426.75 257.858V382.079C426.75 388.475 431.868 394.357 440.19 397.555L599.909 459.595C608.284 462.829 618.622 462.829 626.997 459.595L786.716 397.555C795.038 394.357 800.156 388.439 800.156 382.079V257.858C800.156 251.463 795.038 245.581 786.716 242.383L626.997 180.342C622.81 178.725 618.134 177.913 613.453 177.913ZM1466.95 177.913C1462.26 177.913 1457.57 178.708 1453.41 180.342L1293.69 242.383C1285.37 245.581 1280.25 251.498 1280.25 257.858V382.079C1280.25 388.475 1285.37 394.357 1293.69 397.555L1448.62 459.942C1456.94 463.318 1467.38 463.35 1475.81 460.081L1551.97 430.588C1559.86 427.567 1559.92 419.938 1551.97 416.847L1386.94 352.1V288.324L1466.95 257.303L1546.97 288.324V332.738C1546.97 338.672 1554.46 339.585 1559.47 337.596C1579.64 329.708 1640.42 306.228 1640.42 306.228C1648.59 303.066 1653.66 297.216 1653.66 290.891V257.858C1653.66 251.463 1648.54 245.581 1640.22 242.383L1480.5 180.342C1476.28 178.708 1471.65 177.913 1466.95 177.913ZM186.703 177.983C182.009 177.983 177.32 178.777 173.159 180.411L13.4401 242.383C5.1185 245.616 0 251.532 0 257.928V416.5C0 424.246 12.58 429.047 22.6086 425.175L93.4557 397.693C101.617 394.496 106.688 388.681 106.688 382.357V288.463L186.703 257.373L266.719 288.463V382.357C266.719 388.681 271.789 394.496 279.951 397.693L350.798 425.175C360.826 429.083 373.406 424.246 373.406 416.5V257.928C373.406 251.532 368.288 245.616 359.966 242.383L200.247 180.411C196.087 178.777 191.397 177.983 186.703 177.983ZM1040.2 257.303L1120.22 288.393V319.969V351.544L1040.2 382.634L960.188 351.544V288.393L1040.2 257.303ZM1466.95 284.576L1421.22 302.342V337.804L1466.95 355.5L1512.69 337.804V302.342L1466.95 284.576ZM821.827 426.493C816.339 426.493 810.792 427.387 805.991 429.2L655.961 486.938C646.093 490.562 640.125 497.694 640.125 505.12V620.458C640.125 627.884 646.36 634.873 655.961 638.64L695.448 653.629C714.385 659.847 721.346 659.875 729.934 659.875C758.206 659.875 774.318 648.613 774.318 628.716V514.766C774.318 513.025 772.289 511.782 769.942 511.782H750.98C748.366 511.782 746.5 513.203 746.5 514.766V628.716C746.5 637.35 732.802 646.204 710.451 638.778L669.402 623.025C668.068 622.492 667.109 621.419 667.109 620.388V505.05C667.109 504.02 667.855 502.808 669.402 502.275L819.431 444.675C821.031 444.142 822.839 444.142 824.119 444.675L974.253 502.275C975.8 502.808 976.545 503.842 976.545 505.05V620.388C976.545 621.596 975.533 622.631 974.253 623.164L824.119 680.972C822.786 681.505 820.711 681.505 819.431 680.972L781.09 665.774C780.076 665.419 778.457 665.21 777.443 665.566C766.828 669.723 764.703 670.267 754.835 672.505C752.221 673.038 748.668 674.106 756.189 676.877L805.991 696.586C810.952 698.327 816.386 699.362 821.827 699.362C827.535 699.362 833.081 698.33 837.455 696.447L987.484 638.64C997.353 635.015 1003.32 627.884 1003.32 620.458V505.12C1003.32 497.694 997.086 490.74 987.484 486.938L837.455 429.2C832.788 427.387 827.315 426.493 821.827 426.493ZM1055.83 479.721C1040.52 479.721 1027.08 487.966 1027.08 498.874C1027.08 509.427 1039.99 518.097 1055.83 518.097C1071.67 518.097 1084.59 509.427 1084.59 498.874C1084.59 487.966 1071.41 479.543 1055.83 479.721ZM1055.52 482.774C1069.07 482.774 1080 489.885 1080 498.874C1080 507.686 1069.01 514.969 1055.52 515.182C1042.24 515.182 1031.45 507.864 1031.45 498.874C1031.45 489.885 1042.29 482.774 1055.52 482.774ZM1045 487.979V509.561H1051.14V500.956H1056.87C1059.22 500.956 1059.78 501.622 1060.31 502.83C1060.31 503.007 1061.29 508.6 1061.56 509.631H1068.23C1067.48 508.6 1066.93 505.647 1066.67 503.871C1065.92 501.099 1065.68 499.191 1061.25 499.013C1063.6 498.48 1067.5 497.649 1067.5 493.669C1067.5 487.949 1060.04 487.979 1056.14 487.979H1045ZM1051.14 491.449H1056.35C1057.95 491.449 1061.04 491.414 1061.04 494.363C1061.04 495.571 1060.25 497.522 1056.04 497.486H1051.14V491.449ZM862.043 509.076C819.208 509.076 793.801 521.236 793.801 541.276C793.801 563.234 819.251 569.108 860.272 571.88C909.348 575.149 913.199 579.849 913.199 586.245C913.199 597.473 899.668 602.137 867.982 602.137C828.241 602.137 819.498 595.575 816.618 582.428C816.351 581.042 814.485 579.999 812.138 579.999H792.655C790.308 579.999 788.279 581.242 788.279 582.983C788.279 599.754 802.003 619.833 867.669 619.833C915.839 619.798 943.101 607.367 943.101 585.551C943.101 563.948 921.262 558.202 875.067 554.045C828.338 549.888 823.703 547.796 823.703 540.512C823.703 534.472 827.53 526.564 862.043 526.564C892.929 526.564 904.442 531.063 909.136 544.884C909.669 546.27 911.119 547.105 913.199 547.105H932.682C933.962 547.105 935.061 546.77 935.808 546.272C936.608 545.597 937.116 544.904 936.85 544.052C933.756 520.175 910.106 509.076 862.043 509.076Z" fill="white"/>
</svg>
